<svg width="34" height="33" viewBox="0 0 34 33" fill="none" xmlns="http://www.w3.org/2000/svg">
<path d="M6.66326 22.9415C5.15473 20.3964 4.62706 17.3881 5.17932 14.4815C5.73158 11.5749 7.32579 8.96986 9.66266 7.15537C11.9995 5.34088 14.9183 4.44177 17.8712 4.62682C20.824 4.81188 23.6077 6.06837 25.6997 8.16041C27.7918 10.2525 29.0483 13.0362 29.2333 15.989C29.4184 18.9418 28.5193 21.8606 26.7048 24.1975C24.8903 26.5344 22.2852 28.1286 19.3786 28.6808C16.472 29.2331 13.4638 28.7054 10.9187 27.1969L6.71392 28.3874C6.54165 28.4378 6.35899 28.4409 6.1851 28.3964C6.01122 28.3519 5.85249 28.2615 5.72558 28.1346C5.59866 28.0077 5.50822 27.8489 5.46374 27.675C5.41926 27.5012 5.42237 27.3185 5.47276 27.1462L6.66326 22.9415Z" stroke="#D21642" stroke-width="2.02638" stroke-linecap="round" stroke-linejoin="round"/>
<path d="M17.1243 18.2554C17.9636 18.2554 18.6441 17.575 18.6441 16.7356C18.6441 15.8963 17.9636 15.2158 17.1243 15.2158C16.2849 15.2158 15.6045 15.8963 15.6045 16.7356C15.6045 17.575 16.2849 18.2554 17.1243 18.2554Z" fill="#D21642"/>
<path d="M11.0452 18.2554C11.8845 18.2554 12.565 17.575 12.565 16.7356C12.565 15.8963 11.8845 15.2158 11.0452 15.2158C10.2058 15.2158 9.52539 15.8963 9.52539 16.7356C9.52539 17.575 10.2058 18.2554 11.0452 18.2554Z" fill="#D21642"/>
<path d="M23.2034 18.2554C24.0427 18.2554 24.7232 17.575 24.7232 16.7356C24.7232 15.8963 24.0427 15.2158 23.2034 15.2158C22.364 15.2158 21.6836 15.8963 21.6836 16.7356C21.6836 17.575 22.364 18.2554 23.2034 18.2554Z" fill="#D21642"/>
</svg>
