<svg width="34" height="33" viewBox="0 0 34 33" fill="none" xmlns="http://www.w3.org/2000/svg">
<path d="M16.839 28.8937C23.5538 28.8937 28.9973 23.4503 28.9973 16.7354C28.9973 10.0206 23.5538 4.57715 16.839 4.57715C10.1241 4.57715 4.68066 10.0206 4.68066 16.7354C4.68066 23.4503 10.1241 28.8937 16.839 28.8937Z" stroke="#D21642" stroke-width="2.02638" stroke-linecap="round" stroke-linejoin="round"/>
<path d="M16.8394 20.7882C19.6372 20.7882 21.9054 18.5201 21.9054 15.7222C21.9054 12.9244 19.6372 10.6562 16.8394 10.6562C14.0415 10.6562 11.7734 12.9244 11.7734 15.7222C11.7734 18.5201 14.0415 20.7882 16.8394 20.7882Z" stroke="#D21642" stroke-width="2.02638" stroke-linecap="round" stroke-linejoin="round"/>
<path d="M8.70801 25.7783C9.47032 24.2768 10.6335 23.0157 12.0687 22.1348C13.5039 21.2539 15.1549 20.7876 16.8389 20.7876C18.5228 20.7876 20.1739 21.2539 21.609 22.1348C23.0442 23.0157 24.2074 24.2768 24.9697 25.7783" stroke="#D21642" stroke-width="2.02638" stroke-linecap="round" stroke-linejoin="round"/>
</svg>
