<svg width="20" height="18" viewBox="0 0 20 18" fill="none" xmlns="http://www.w3.org/2000/svg">
	<path d="M19.1668 8.33398C19.1668 7.89196 18.9912 7.46803 18.6787 7.15547C18.3661 6.84291 17.9422 6.66732 17.5002 6.66732H12.2335L13.0335 2.85898C13.0502 2.77565 13.0585 2.68398 13.0585 2.59232C13.0585 2.25065 12.9168 1.93398 12.6918 1.70898L11.8085 0.833984L6.32516 6.31732C6.01683 6.62565 5.8335 7.04232 5.8335 7.50065V15.834C5.8335 16.276 6.00909 16.6999 6.32165 17.0125C6.63421 17.3251 7.05814 17.5007 7.50016 17.5007H15.0002C15.6918 17.5007 16.2835 17.084 16.5335 16.484L19.0502 10.609C19.1252 10.4173 19.1668 10.2173 19.1668 10.0007V8.33398ZM0.833496 17.5007H4.16683V7.50065H0.833496V17.5007Z" fill="#767676" />
</svg>
