<svg width="18" height="17" viewBox="0 0 18 17" fill="none" xmlns="http://www.w3.org/2000/svg">
<path d="M9.32036 0.00450902C9.77772 0.441884 10.1927 0.696643 10.398 1.06864C10.9892 2.14178 11.4644 3.27806 12.0512 4.3512C12.2051 4.63302 12.5755 4.90581 12.8878 4.96894C14.048 5.20115 15.2394 5.28457 16.3929 5.54835C16.8502 5.65205 17.4615 6.0015 17.5909 6.38251C17.7181 6.75676 17.4415 7.41733 17.1358 7.77129C16.3772 8.6483 15.5138 9.43737 14.6638 10.231C14.3023 10.5691 14.1618 10.878 14.2778 11.4011C14.5232 12.5103 14.7396 13.6375 14.8333 14.7693C14.8757 15.2743 14.7463 16.016 14.4139 16.264C14.0837 16.5098 13.343 16.4083 12.8834 16.2099C11.8236 15.7545 10.8419 15.1187 9.79557 14.6273C9.50554 14.492 9.04816 14.483 8.76259 14.6205C7.69167 15.13 6.68323 15.7771 5.60116 16.255C5.1728 16.4421 4.47001 16.512 4.14873 16.2753C3.82746 16.0386 3.67129 15.3397 3.71368 14.8685C3.81854 13.7074 4.12196 12.5666 4.24914 11.4056C4.28929 11.0358 4.13088 10.5331 3.88324 10.258C3.10459 9.39454 2.19432 8.65281 1.43352 7.7758C1.12787 7.4241 0.848984 6.76804 0.973924 6.38928C1.09886 6.00827 1.70571 5.6498 2.16085 5.54609C3.31208 5.28231 4.50571 5.19664 5.66587 4.96443C5.97822 4.9013 6.34634 4.62851 6.50028 4.34669C7.08706 3.27129 7.55335 2.13051 8.15351 1.06413C8.37215 0.676353 8.83398 0.430611 9.32259 0L9.32036 0.00450902ZM14.0168 7.55035C11.3774 7.7262 9.9406 6.48171 9.35829 3.87325C8.90984 4.78858 8.57518 5.42435 8.28291 6.07816C7.99064 6.73647 7.55112 7.12876 6.81263 7.20316C6.09646 7.2753 5.38921 7.42635 4.6775 7.54133L4.48339 7.71042C6.73901 8.96393 7.22538 10.8081 6.3508 13.2249C8.35207 11.5093 10.2396 11.6265 12.2297 13.2227C11.3105 10.8014 11.8504 8.97069 14.0145 7.55035H14.0168Z" fill="#FFB800"/>
</svg>
