
<svg width="58" height="58" viewBox="0 0 58 58" fill="none" xmlns="http://www.w3.org/2000/svg">
<circle cx="29" cy="29" r="29" fill="#096C2B"/>
<path d="M43.1668 23.5623V23.6657C43.1668 24.8841 43.1668 25.4947 42.8736 25.9933C42.5803 26.492 42.0462 26.7881 40.9809 27.3817L39.8575 28.005C40.631 25.387 40.8902 22.5735 40.9852 20.168L40.9993 19.8549L41.0022 19.7812C41.9244 20.1014 42.4429 20.3408 42.7659 20.7885C43.1668 21.3452 43.1668 22.0847 43.1668 23.5623ZM14.8335 23.5623V23.6657C14.8335 24.8841 14.8335 25.4947 15.1267 25.9933C15.42 26.492 15.9541 26.7881 17.0194 27.3817L18.1442 28.005C17.3693 25.387 17.1101 22.5735 17.0152 20.168L17.001 19.8549L16.9996 19.7812C16.0759 20.1014 15.5574 20.3408 15.2344 20.7885C14.8335 21.3452 14.8335 22.0862 14.8335 23.5623Z" fill="white"/>
<path fill-rule="evenodd" clip-rule="evenodd" d="M35.2006 15.3259C33.151 14.99 31.0769 14.8255 28.9999 14.8343C26.474 14.8343 24.3915 15.0567 22.7991 15.3259C21.1855 15.5979 20.3795 15.7339 19.7051 16.5641C19.0322 17.3942 19.0676 18.291 19.1385 20.0845C19.3835 26.2442 20.7124 33.9395 27.9374 34.6195V39.626H25.9115C25.5842 39.6262 25.267 39.7398 25.0139 39.9474C24.7607 40.1551 24.5874 40.444 24.5232 40.765L24.254 42.1052H20.4999C20.2181 42.1052 19.9478 42.2171 19.7486 42.4163C19.5493 42.6156 19.4374 42.8859 19.4374 43.1677C19.4374 43.4494 19.5493 43.7197 19.7486 43.919C19.9478 44.1182 20.2181 44.2302 20.4999 44.2302H37.4999C37.7817 44.2302 38.0519 44.1182 38.2512 43.919C38.4504 43.7197 38.5624 43.4494 38.5624 43.1677C38.5624 42.8859 38.4504 42.6156 38.2512 42.4163C38.0519 42.2171 37.7817 42.1052 37.4999 42.1052H33.7457L33.4765 40.765C33.4124 40.444 33.239 40.1551 32.9859 39.9474C32.7328 39.7398 32.4156 39.6262 32.0882 39.626H30.0624V34.6195C37.2874 33.9395 38.6176 26.2456 38.8613 20.0845C38.9321 18.291 38.969 17.3928 38.2946 16.5641C37.6203 15.7339 36.8142 15.5979 35.2006 15.3259Z" fill="white"/>
</svg>
