<svg width="15" height="15" viewBox="0 0 15 15" fill="none" xmlns="http://www.w3.org/2000/svg">
	<path d="M13.9466 0.685007L0.22746 5.25917C0.171288 5.27785 0.12213 5.31318 0.0865165 5.36047C0.0509035 5.40776 0.0305222 5.46476 0.0280804 5.52391C0.0256385 5.58305 0.0412519 5.64154 0.072846 5.6916C0.10444 5.74166 0.150519 5.78093 0.204961 5.80417L5.24663 7.96501C5.27305 7.97644 5.30198 7.98084 5.3306 7.97778C5.35922 7.97471 5.38657 7.96428 5.40996 7.94751L10.3525 4.41584C10.5058 4.30751 10.6941 4.49584 10.5858 4.64917L7.05413 9.59167C7.03763 9.61505 7.02744 9.64228 7.02452 9.67074C7.0216 9.6992 7.02606 9.72793 7.03746 9.75417L9.19746 14.7958C9.22063 14.8503 9.25982 14.8964 9.30983 14.9281C9.35984 14.9598 9.4183 14.9755 9.47744 14.9731C9.53658 14.9708 9.59361 14.9505 9.64094 14.9149C9.68828 14.8794 9.72369 14.8303 9.74246 14.7742L14.3166 1.05417C14.3338 1.00275 14.3364 0.947544 14.324 0.894758C14.3115 0.841972 14.2846 0.793695 14.2463 0.755349C14.2079 0.717003 14.1597 0.690107 14.1069 0.677682C14.0541 0.665256 13.9981 0.667793 13.9466 0.685007Z" fill="#767676" />
</svg>
