<svg width="17" height="17" viewBox="0 0 17 17" fill="none" xmlns="http://www.w3.org/2000/svg">
<path d="M0 5.90908C0.571154 5.16058 1.43458 5.17636 2.23553 5.03884C3.28414 4.86073 4.55362 5.00051 5.32334 4.43688C6.09082 3.871 6.36078 2.60848 6.84493 1.64806C7.00779 1.32792 7.09704 0.937886 7.33353 0.696653C7.64365 0.385531 8.06978 -0.00224472 8.4446 9.78518e-06C8.81942 9.78518e-06 9.33703 0.353968 9.54006 0.703417C10.1536 1.76078 10.6132 2.91058 11.2067 3.98147C11.374 4.28358 11.7689 4.5699 12.1058 4.63979C13.2659 4.87651 14.4618 4.95317 15.613 5.22145C16.0637 5.32741 16.6304 5.70617 16.7777 6.10071C16.9048 6.44114 16.6237 7.08142 16.3314 7.41284C15.5416 8.30562 14.6202 9.07666 13.8148 9.95818C13.5805 10.2129 13.431 10.6864 13.4712 11.0313C13.6006 12.1608 13.8996 13.2746 14.0022 14.4063C14.0468 14.9136 13.9241 15.5742 13.6185 15.9416C13.1745 16.4782 12.5364 16.1693 11.992 15.8763C10.9992 15.3397 10.0153 14.7783 8.99122 14.3094C8.67887 14.1673 8.19472 14.1719 7.88237 14.3184C6.807 14.8212 5.79855 15.4682 4.71425 15.9484C4.31043 16.1265 3.65003 16.1806 3.33545 15.9574C3.0231 15.7365 2.84015 15.0827 2.88031 14.6453C2.98517 13.4527 3.19489 12.2645 3.45147 11.0944C3.57641 10.5308 3.40015 10.2129 3.02533 9.84996C1.99458 8.85798 1.00398 7.82767 0 6.81088C0 6.51103 0 6.20893 0 5.90908Z" fill="#FFB800"/>
</svg>
