<svg width="20" height="14" viewBox="0 0 20 14" fill="none" xmlns="http://www.w3.org/2000/svg">
	<path d="M19.3211 6.74688C19.2937 6.68516 18.632 5.21719 17.1609 3.74609C15.2008 1.78594 12.725 0.75 9.99999 0.75C7.27499 0.75 4.79921 1.78594 2.83905 3.74609C1.36796 5.21719 0.703118 6.6875 0.678899 6.74688C0.643362 6.82681 0.625 6.91331 0.625 7.00078C0.625 7.08826 0.643362 7.17476 0.678899 7.25469C0.706243 7.31641 1.36796 8.78359 2.83905 10.2547C4.79921 12.2141 7.27499 13.25 9.99999 13.25C12.725 13.25 15.2008 12.2141 17.1609 10.2547C18.632 8.78359 19.2937 7.31641 19.3211 7.25469C19.3566 7.17476 19.375 7.08826 19.375 7.00078C19.375 6.91331 19.3566 6.82681 19.3211 6.74688ZM9.99999 10.125C9.38193 10.125 8.77774 9.94172 8.26383 9.59834C7.74993 9.25496 7.34939 8.7669 7.11287 8.19589C6.87634 7.62487 6.81446 6.99653 6.93504 6.39034C7.05562 5.78415 7.35324 5.22733 7.79028 4.79029C8.22732 4.35325 8.78414 4.05562 9.39033 3.93505C9.99652 3.81447 10.6249 3.87635 11.1959 4.11288C11.7669 4.3494 12.255 4.74994 12.5983 5.26384C12.9417 5.77775 13.125 6.38193 13.125 7C13.125 7.8288 12.7958 8.62366 12.2097 9.20971C11.6236 9.79576 10.8288 10.125 9.99999 10.125Z" fill="#767676" />
</svg>
