
<svg width="6" height="11" viewBox="0 0 6 11" fill="none" xmlns="http://www.w3.org/2000/svg">
<path d="M0.625323 0.709152C0.558381 0.775546 0.505248 0.854538 0.468989 0.94157C0.43273 1.0286 0.414062 1.12195 0.414062 1.21624C0.414062 1.31052 0.43273 1.40387 0.468989 1.4909C0.505248 1.57794 0.558381 1.65693 0.625323 1.72332L3.89638 4.99438C3.96332 5.06077 4.01645 5.13977 4.05271 5.2268C4.08897 5.31383 4.10764 5.40718 4.10764 5.50147C4.10764 5.59575 4.08897 5.6891 4.05271 5.77613C4.01645 5.86316 3.96332 5.94216 3.89638 6.00855L0.625323 9.27961C0.558382 9.346 0.505249 9.42499 0.46899 9.51203C0.43273 9.59906 0.414062 9.69241 0.414062 9.78669C0.414062 9.88098 0.43273 9.97433 0.46899 10.0614C0.505249 10.1484 0.558382 10.2274 0.625323 10.2938C0.759138 10.4268 0.940155 10.5015 1.12884 10.5015C1.31752 10.5015 1.49854 10.4268 1.63235 10.2938L4.91055 7.01558C5.31179 6.61384 5.53717 6.06926 5.53717 5.50147C5.53717 4.93367 5.31179 4.38909 4.91055 3.98735L1.63235 0.709152C1.49854 0.576131 1.31752 0.501465 1.12884 0.501465C0.940154 0.501465 0.759138 0.576131 0.625323 0.709152Z" fill="#3F3F3F"/>
</svg>