<svg width="30" height="30" viewBox="0 0 30 30" fill="none" xmlns="http://www.w3.org/2000/svg">
<path d="M5.38807 20.6473C4.00346 18.3113 3.51915 15.5502 4.02604 12.8824C4.53293 10.2146 5.99617 7.82351 8.14106 6.15809C10.2859 4.49267 12.965 3.66742 15.6752 3.83727C18.3854 4.00712 20.9405 5.16039 22.8606 7.08057C24.7808 9.00074 25.9341 11.5558 26.1039 14.266C26.2738 16.9762 25.4485 19.6553 23.7831 21.8001C22.1177 23.945 19.7266 25.4083 17.0588 25.9152C14.391 26.4221 11.6299 25.9377 9.29387 24.5531L5.43456 25.6458C5.27644 25.6921 5.1088 25.6949 4.94919 25.6541C4.78959 25.6133 4.64391 25.5303 4.52742 25.4138C4.41093 25.2973 4.32792 25.1516 4.28709 24.992C4.24626 24.8324 4.24912 24.6648 4.29537 24.5066L5.38807 20.6473Z" stroke="#FA8232" stroke-width="1.85991" stroke-linecap="round" stroke-linejoin="round"/>
<path d="M14.9906 16.346C15.761 16.346 16.3856 15.7215 16.3856 14.9511C16.3856 14.1807 15.761 13.5562 14.9906 13.5562C14.2202 13.5562 13.5957 14.1807 13.5957 14.9511C13.5957 15.7215 14.2202 16.346 14.9906 16.346Z" fill="#FA8232"/>
<path d="M9.41056 16.346C10.181 16.346 10.8055 15.7215 10.8055 14.9511C10.8055 14.1807 10.181 13.5562 9.41056 13.5562C8.64016 13.5562 8.01562 14.1807 8.01562 14.9511C8.01562 15.7215 8.64016 16.346 9.41056 16.346Z" fill="#FA8232"/>
<path d="M20.5707 16.346C21.3411 16.346 21.9656 15.7215 21.9656 14.9511C21.9656 14.1807 21.3411 13.5562 20.5707 13.5562C19.8003 13.5562 19.1758 14.1807 19.1758 14.9511C19.1758 15.7215 19.8003 16.346 20.5707 16.346Z" fill="#FA8232"/>
</svg>
