<svg width="30" height="30" viewBox="0 0 30 30" fill="none" xmlns="http://www.w3.org/2000/svg">
<path d="M14.9163 26.1104C21.0795 26.1104 26.0757 21.1141 26.0757 14.951C26.0757 8.78776 21.0795 3.7915 14.9163 3.7915C8.75309 3.7915 3.75684 8.78776 3.75684 14.951C3.75684 21.1141 8.75309 26.1104 14.9163 26.1104Z" stroke="#FA8232" stroke-width="1.85991" stroke-linecap="round" stroke-linejoin="round"/>
<path d="M14.9164 18.6706C17.4844 18.6706 19.5661 16.5889 19.5661 14.0209C19.5661 11.4529 17.4844 9.37109 14.9164 9.37109C12.3484 9.37109 10.2666 11.4529 10.2666 14.0209C10.2666 16.5889 12.3484 18.6706 14.9164 18.6706Z" stroke="#FA8232" stroke-width="1.85991" stroke-linecap="round" stroke-linejoin="round"/>
<path d="M7.4541 23.2511C8.15379 21.873 9.22143 20.7155 10.5387 19.9069C11.856 19.0984 13.3714 18.6704 14.917 18.6704C16.4626 18.6704 17.978 19.0984 19.2953 19.9069C20.6125 20.7155 21.6802 21.873 22.3799 23.2511" stroke="#FA8232" stroke-width="1.85991" stroke-linecap="round" stroke-linejoin="round"/>
</svg>
