<svg width="49" height="48" viewBox="0 0 49 48" fill="none" xmlns="http://www.w3.org/2000/svg">
<g clipPath="url(#clip0_333_15609)">
<path d="M26.9315 29.5892L26.6347 29.8804C25.467 31.0255 25.467 32.8801 26.6347 34.0253C27.2185 34.5978 27.9836 34.8832 28.7487 34.8832C29.5139 34.8832 30.279 34.5978 30.8628 34.0253L44.8105 20.3458C45.9781 19.2006 45.9781 17.346 44.8105 16.2009C43.6429 15.0557 41.752 15.0557 40.5844 16.2009L40.0384 16.7363L29.1532 6.08782L29.731 5.5211C30.8987 4.37593 30.8987 2.52138 29.731 1.37621C28.5634 0.231042 26.6725 0.231042 25.5049 1.37621L11.5572 15.0557C10.3896 16.2009 10.3896 18.0554 11.5572 19.2006C12.141 19.7732 12.9061 20.0585 13.6712 20.0585C14.4364 20.0585 15.2015 19.7732 15.7853 19.2006L16.0483 18.9426L19.3958 22.2179L1.60647 39.4697C0.432873 40.607 0.420918 42.4635 1.58256 43.6146C2.16638 44.195 2.93748 44.4842 3.7066 44.4842C4.46576 44.4842 5.2269 44.2008 5.80872 43.6361L23.6259 26.355L26.9315 29.5892ZM24.9271 10.2308L35.8123 20.8793L31.1597 25.4423L20.2745 14.7938L24.9271 10.2308ZM48.5405 44.4842C48.5405 46.1023 47.2016 47.4155 45.5517 47.4155H21.6414C19.9916 47.4155 18.6526 46.1023 18.6526 44.4842C18.6526 43.1788 19.5273 42.0864 20.7308 41.7073C21.1333 39.4052 23.1677 37.6445 25.6264 37.6445H41.5667C44.0275 37.6445 46.0618 39.4052 46.4623 41.7073C47.6638 42.0864 48.5405 43.1807 48.5405 44.4842Z" fill="white"/>
</g>
<defs>
<clipPath id="clip0_333_15609">
<rect width="47.8207" height="46.9011" fill="white" transform="translate(0.720703 0.514404)"/>
</clipPath>
</defs>
</svg>
