<svg width="39" height="39" viewBox="0 0 39 39" fill="none" xmlns="http://www.w3.org/2000/svg">
<g clipPath="url(#clip0_333_15621)">
<path d="M30.5078 6.99483H28.7797C28.4151 5.22178 27.4503 3.62865 26.0481 2.48395C24.6458 1.33925 22.8918 0.712978 21.0816 0.710693L17.9396 0.710693C16.1294 0.712978 14.3754 1.33925 12.9731 2.48395C11.5709 3.62865 10.6061 5.22178 10.2415 6.99483H8.51337C6.43082 6.99732 4.43427 7.82572 2.96168 9.29831C1.48909 10.7709 0.660698 12.7674 0.658203 14.85L0.658203 19.5631H38.363V14.85C38.3605 12.7674 37.5321 10.7709 36.0595 9.29831C34.5869 7.82572 32.5904 6.99732 30.5078 6.99483ZM13.5155 6.99483C13.8393 6.07906 14.4381 5.28569 15.23 4.72325C16.0219 4.16082 16.9683 3.85679 17.9396 3.85276H21.0816C22.053 3.85679 22.9993 4.16082 23.7912 4.72325C24.5831 5.28569 25.1819 6.07906 25.5057 6.99483H13.5155Z" fill="white"/>
<path d="M21.0816 24.2759C21.0816 24.6925 20.9161 25.0921 20.6215 25.3868C20.3269 25.6814 19.9273 25.8469 19.5106 25.8469C19.0939 25.8469 18.6943 25.6814 18.3997 25.3868C18.1051 25.0921 17.9396 24.6925 17.9396 24.2759V22.7048H0.658203V30.56C0.660698 32.6426 1.48909 34.6391 2.96168 36.1117C4.43427 37.5843 6.43082 38.4127 8.51337 38.4152H30.5078C32.5904 38.4127 34.5869 37.5843 36.0595 36.1117C37.5321 34.6391 38.3605 32.6426 38.363 30.56V22.7048H21.0816V24.2759Z" fill="white"/>
</g>
<defs>
<clipPath id="clip0_333_15621">
<rect width="37.7048" height="37.7048" fill="white" transform="translate(0.658203 0.710693)"/>
</clipPath>
</defs>
</svg>
