<svg width="42" height="53" viewBox="0 0 42 53" fill="none" xmlns="http://www.w3.org/2000/svg">
<g clipPath="url(#clip0_333_16196)">
<path d="M22.8716 0.939697C23.7029 1.0062 24.5122 1.07271 25.3435 1.13921C28.8654 1.44957 32.3436 2.00377 35.6687 3.26736C37.0468 3.79939 38.3593 4.44227 39.4312 5.48418C40.525 6.52608 40.8093 7.72316 40.0875 8.87591C39.7375 9.45228 39.2124 9.93998 38.6874 10.3612C36.9374 11.6691 34.8811 12.3563 32.803 12.8884C27.9248 14.1298 22.9591 14.4623 17.9715 14.2406C14.5809 14.0854 11.2558 13.6864 7.97453 12.7997C6.00575 12.2676 4.08072 11.6248 2.44008 10.3612C1.91507 9.96215 1.41194 9.47445 1.06193 8.92025C0.318172 7.78967 0.624426 6.52608 1.71819 5.48418C2.79008 4.46444 4.05885 3.82156 5.39324 3.31169C8.10578 2.26979 10.9496 1.69342 13.8152 1.36089C15.1715 1.20572 16.5278 1.13921 17.884 1.02837C18.0153 1.02837 18.1465 0.984034 18.2778 0.961865C19.8091 0.961865 21.3403 0.961865 22.8716 0.961865V0.939697Z" fill="white"/>
<path d="M0.753452 35.522C2.26285 37.7831 4.47225 38.9359 6.81291 39.8669C10.3786 41.2635 14.0974 41.8842 17.9037 42.1059C22.1256 42.3498 26.3038 42.0616 30.4382 41.0862C33.2601 40.4211 35.9727 39.5122 38.3133 37.7166C39.1008 37.1181 39.7571 36.3422 40.479 35.655C40.829 36.187 41.0259 36.8964 41.0259 37.6501C41.0259 39.7339 41.0477 41.8399 41.0259 43.9237C41.0259 45.409 40.2602 46.5396 39.2321 47.515C37.5258 49.1332 35.4695 50.0865 33.282 50.818C28.3382 52.4806 23.2413 52.924 18.0787 52.658C14.6005 52.4806 11.1661 51.9486 7.86292 50.818C5.74102 50.0865 3.72849 49.1554 2.04409 47.6258C0.797202 46.4509 0.0753176 45.0986 0.119068 43.3473C0.162819 41.4852 0.119068 39.6453 0.119068 37.7831C0.119068 36.9851 0.294071 36.2535 0.731576 35.522H0.753452Z" fill="white"/>
<path d="M0.77538 22.554C2.59103 25.1476 5.28169 26.3891 8.1036 27.3201C13.0255 28.9606 18.0787 29.3596 23.2194 29.0936C26.5664 28.9162 29.8695 28.4064 33.0633 27.3423C35.229 26.6107 37.329 25.7018 39.0571 24.1057C39.5603 23.6402 39.9759 23.1082 40.4572 22.5761C40.8509 23.1747 41.0478 23.884 41.0478 24.6156C41.0478 26.6994 41.0697 28.8054 41.0478 30.8892C41.0478 32.3745 40.2822 33.505 39.254 34.4804C37.5696 36.0766 35.5352 37.0298 33.4133 37.7392C28.3383 39.4461 23.1101 39.8895 17.8162 39.6013C14.4256 39.4018 11.0786 38.8697 7.8411 37.7613C5.74107 37.0298 3.72854 36.0987 2.06602 34.5691C0.77538 33.4164 0.075371 32.0641 0.119122 30.2907C0.184747 28.4507 0.119122 26.6107 0.119122 24.7708C0.119122 23.8397 0.337875 23.086 0.753505 22.554H0.77538Z" fill="white"/>
<path d="M40.654 9.98433C40.7852 10.6494 41.004 11.3144 41.0259 11.9795C41.0696 14.0189 41.0477 16.0584 41.0259 18.0979C41.0259 19.6275 40.2602 20.7802 39.2102 21.7778C37.504 23.3961 35.4477 24.3493 33.2601 25.0587C28.0319 26.7878 22.6506 27.209 17.2037 26.8322C14.0318 26.6105 10.9255 26.1006 7.92855 25.0587C5.7629 24.3271 3.68474 23.3739 1.97847 21.7778C0.797204 20.7137 0.0753191 19.4058 0.11907 17.6989C0.16282 15.8367 0.0971944 13.9524 0.140945 12.0903C0.140945 11.3809 0.381573 10.6937 0.556576 10.0065C1.49721 12.3563 3.55349 13.1987 5.58789 13.9968C8.25668 15.0608 11.0786 15.5707 13.9224 15.9032C17.6412 16.3466 21.36 16.4131 25.0788 16.1027C28.9945 15.7702 32.8664 15.1939 36.5196 13.5756C37.2414 13.2652 37.9415 12.844 38.6196 12.4007C39.4946 11.8021 40.2165 11.0706 40.4571 9.96216H40.654V9.98433Z" fill="white"/>
</g>
<defs>
<clipPath id="clip0_333_16196">
<rect width="40.9287" height="51.7627" fill="white" transform="translate(0.119141 0.939697)"/>
</clipPath>
</defs>
</svg>
