<svg width="10" height="10" viewBox="0 0 10 10" fill="none" xmlns="http://www.w3.org/2000/svg">
<path d="M5.2037 0.44539C5.45923 0.689753 5.69109 0.832088 5.80576 1.03992C6.13609 1.63949 6.4016 2.27433 6.72943 2.87391C6.81544 3.03136 7.02236 3.18377 7.19687 3.21904C7.84505 3.34878 8.51069 3.39538 9.15513 3.54275C9.41067 3.6007 9.75221 3.79593 9.82451 4.00881C9.89556 4.2179 9.74099 4.58697 9.57022 4.78472C9.14641 5.27471 8.66401 5.71557 8.18909 6.15895C7.98715 6.34789 7.90862 6.52046 7.97344 6.81268C8.11056 7.43241 8.23147 8.06221 8.28382 8.69453C8.30751 8.97668 8.23521 9.39109 8.04948 9.52965C7.865 9.66694 7.45115 9.61026 7.19437 9.49942C6.60228 9.24498 6.05382 8.88977 5.46921 8.61518C5.30716 8.5396 5.05162 8.53456 4.89207 8.6114C4.29375 8.89607 3.73033 9.25757 3.12577 9.52461C2.88644 9.62916 2.49379 9.6682 2.31429 9.53594C2.1348 9.40369 2.04754 9.01321 2.07123 8.74995C2.12981 8.10126 2.29934 7.4639 2.37039 6.8152C2.39282 6.60863 2.30432 6.32774 2.16596 6.17407C1.73093 5.69164 1.22235 5.27723 0.797295 4.78724C0.626523 4.59074 0.47071 4.2242 0.540514 4.01259C0.610319 3.79971 0.949366 3.59944 1.20365 3.54149C1.84685 3.39412 2.51374 3.34626 3.16192 3.21652C3.33643 3.18125 3.5421 3.02884 3.62811 2.87139C3.95595 2.27056 4.21647 1.6332 4.55178 1.0374C4.67393 0.820752 4.93196 0.683455 5.20495 0.442871L5.2037 0.44539ZM7.8276 4.66128C6.35298 4.75953 5.55023 4.06423 5.22489 2.60687C4.97434 3.11827 4.78737 3.47348 4.62407 3.83876C4.46078 4.20657 4.21522 4.42574 3.80262 4.4673C3.4025 4.50761 3.00735 4.592 2.60971 4.65624L2.50127 4.75071C3.76149 5.45105 4.03323 6.48141 3.5446 7.8317C4.66271 6.87314 5.71726 6.93864 6.82915 7.83044C6.31559 6.47763 6.61724 5.45483 7.82635 4.66128H7.8276Z" fill="#FFB800"/>
</svg>
