<svg width="43" height="43" viewBox="0 0 43 43" fill="none" xmlns="http://www.w3.org/2000/svg">
<g clipPath="url(#clip0_333_16244)">
<path d="M0.264712 14.6772H39.7058V22.4055C36.6984 20.494 33.4674 19.8545 30.0044 20.5906C27.3572 21.1535 25.122 22.4738 23.2952 24.4724C19.6816 28.4248 18.6952 34.7221 22.0957 40.01C21.9698 40.023 21.8627 40.0442 21.7556 40.0442C16.0292 40.0454 10.3027 40.0512 4.57513 40.043C2.12918 40.0395 0.270598 38.1904 0.267066 35.7526C0.25765 28.8476 0.263535 21.9426 0.263535 15.0376C0.263535 14.9246 0.263535 14.8115 0.263535 14.6772H0.264712ZM7.33534 21.7259V24.5041H12.9229V21.7259H7.33534ZM12.9193 32.9755V30.209H7.33888V32.9755H12.9193Z" fill="white"/>
<path d="M28.4695 3.3404V0.572754H31.2651V3.3722C31.8512 3.3722 32.3892 3.36513 32.9271 3.37337C34.0265 3.39222 35.1376 3.32744 36.2229 3.46406C38.1168 3.70314 39.6152 5.3649 39.7129 7.27987C39.78 8.59892 39.7329 9.92386 39.7364 11.2464C39.7364 11.4219 39.7364 11.5962 39.7364 11.8035H0.263524C0.263524 11.429 0.257639 11.0521 0.263524 10.6752C0.284712 9.41391 0.20114 8.13843 0.35769 6.89358C0.610759 4.8785 2.38813 3.40753 4.42798 3.37926C5.83693 3.35924 7.24588 3.37573 8.70308 3.37573V0.57982H11.5292V3.3404H28.4684H28.4695Z" fill="white"/>
<path d="M32.6771 42.8665C27.2461 42.8618 22.8203 38.4277 22.8203 32.9925C22.8203 27.5385 27.2673 23.1055 32.7206 23.1197C38.1504 23.1338 42.5656 27.575 42.555 33.0137C42.5444 38.4477 38.1104 42.87 32.6759 42.8653L32.6771 42.8665ZM31.2775 33.8758C30.2982 32.8924 29.3789 31.9702 28.515 31.1034C27.8582 31.7594 27.2108 32.406 26.6199 32.996C28.1665 34.5436 29.7497 36.1276 31.2658 37.6445C33.7553 35.1524 36.2812 32.6227 38.7601 30.1424C38.1657 29.5453 37.5266 28.9023 36.8874 28.2604C35.0571 30.0929 33.202 31.9502 31.2764 33.8758H31.2775Z" fill="white"/>
</g>
<defs>
<clipPath id="clip0_333_16244">
<rect width="42.2943" height="42.2943" fill="white" transform="translate(0.261719 0.572754)"/>
</clipPath>
</defs>
</svg>
