<svg width="19" height="18" viewBox="0 0 19 18" fill="none" xmlns="http://www.w3.org/2000/svg">
<g clipPath="url(#clip0_333_15032)">
<path d="M17.6993 16.0839L14.2155 12.5986C16.8222 9.115 16.1115 4.17775 12.6279 1.57096C9.1443 -1.03583 4.20705 -0.325041 1.60026 3.15854C-1.00653 6.64212 -0.295744 11.5794 3.18784 14.1862C5.98614 16.2802 9.82954 16.2802 12.6279 14.1862L16.1132 17.6715C16.5512 18.1095 17.2613 18.1095 17.6993 17.6715C18.1373 17.2335 18.1373 16.5234 17.6993 16.0854L17.6993 16.0839ZM7.9369 13.5135C4.84086 13.5135 2.33105 11.0036 2.33105 7.90761C2.33105 4.81157 4.84086 2.30176 7.9369 2.30176C11.0329 2.30176 13.5428 4.81157 13.5428 7.90761C13.5395 11.0022 11.0316 13.5102 7.9369 13.5135Z" fill="#374856"/>
</g>
<defs>
<clipPath id="clip0_333_15032">
<rect width="18" height="18" fill="white" transform="translate(0.0292969)"/>
</clipPath>
</defs>
</svg>
