<svg width="15" height="9" viewBox="0 0 15 9" fill="none" xmlns="http://www.w3.org/2000/svg">
<path d="M13.7401 1.20986C13.6471 1.11613 13.5365 1.04174 13.4147 0.990969C13.2928 0.940201 13.1621 0.914062 13.0301 0.914062C12.8981 0.914062 12.7674 0.940201 12.6455 0.990969C12.5237 1.04174 12.4131 1.11613 12.3201 1.20986L7.74009 5.78986C7.64713 5.88359 7.53653 5.95798 7.41467 6.00875C7.29281 6.05952 7.1621 6.08566 7.03009 6.08566C6.89808 6.08566 6.76737 6.05952 6.64551 6.00875C6.52365 5.95798 6.41305 5.88359 6.32009 5.78986L1.74009 1.20986C1.64713 1.11613 1.53653 1.04174 1.41467 0.990969C1.29281 0.940201 1.1621 0.914062 1.03009 0.914062C0.898077 0.914062 0.767372 0.940201 0.645513 0.990969C0.523653 1.04174 0.413052 1.11613 0.320089 1.20986C0.133838 1.39722 0.0292969 1.65067 0.0292969 1.91486C0.0292969 2.17905 0.133838 2.4325 0.320089 2.61986L4.91009 7.20986C5.47259 7.77166 6.23509 8.08722 7.03009 8.08722C7.82509 8.08722 8.58759 7.77166 9.15009 7.20986L13.7401 2.61986C13.9263 2.4325 14.0309 2.17905 14.0309 1.91486C14.0309 1.65067 13.9263 1.39722 13.7401 1.20986Z" fill="white"/>
</svg>
