<svg width="19" height="18" viewBox="0 0 19 18" fill="none" xmlns="http://www.w3.org/2000/svg">
<g clipPath="url(#clip0_333_15048)">
<path d="M17.2672 3.05775C17.0562 2.80458 16.7921 2.60096 16.4936 2.46136C16.1951 2.32176 15.8695 2.2496 15.5399 2.25H3.41392L3.38242 1.98675C3.31796 1.43956 3.05496 0.935049 2.64329 0.568858C2.23162 0.202667 1.69989 0.000256345 1.14892 0L0.982422 0C0.783509 0 0.592744 0.0790176 0.452092 0.21967C0.31144 0.360322 0.232422 0.551088 0.232422 0.75C0.232422 0.948912 0.31144 1.13968 0.452092 1.28033C0.592744 1.42098 0.783509 1.5 0.982422 1.5H1.14892C1.33262 1.50002 1.50992 1.56747 1.6472 1.68954C1.78448 1.81161 1.87218 1.97981 1.89367 2.16225L2.92567 10.9373C3.03281 11.8498 3.47128 12.6913 4.15785 13.302C4.84443 13.9127 5.73131 14.25 6.65017 14.25H14.4824C14.6813 14.25 14.8721 14.171 15.0128 14.0303C15.1534 13.8897 15.2324 13.6989 15.2324 13.5C15.2324 13.3011 15.1534 13.1103 15.0128 12.9697C14.8721 12.829 14.6813 12.75 14.4824 12.75H6.65017C6.18596 12.7487 5.73352 12.6038 5.35487 12.3353C4.97622 12.0668 4.68991 11.6877 4.53517 11.25H13.4752C14.3544 11.2501 15.2057 10.9412 15.8803 10.3773C16.5549 9.81348 17.0099 9.03052 17.1659 8.16525L17.7547 4.89975C17.8134 4.57576 17.8002 4.2428 17.716 3.92448C17.6317 3.60616 17.4785 3.31026 17.2672 3.05775ZM16.2824 4.6335L15.6929 7.899C15.5993 8.41875 15.3258 8.88899 14.9203 9.2274C14.5149 9.5658 14.0033 9.7508 13.4752 9.75H4.29667L3.59092 3.75H15.5399C15.6501 3.74934 15.7591 3.77297 15.8591 3.81919C15.9591 3.86542 16.0477 3.93311 16.1186 4.01746C16.1895 4.1018 16.2409 4.20073 16.2692 4.3072C16.2975 4.41368 16.302 4.52508 16.2824 4.6335Z" fill="#374856"/>
<path d="M5.48242 18C6.31085 18 6.98242 17.3284 6.98242 16.5C6.98242 15.6716 6.31085 15 5.48242 15C4.65399 15 3.98242 15.6716 3.98242 16.5C3.98242 17.3284 4.65399 18 5.48242 18Z" fill="#374856"/>
<path d="M12.9824 18C13.8108 18 14.4824 17.3284 14.4824 16.5C14.4824 15.6716 13.8108 15 12.9824 15C12.154 15 11.4824 15.6716 11.4824 16.5C11.4824 17.3284 12.154 18 12.9824 18Z" fill="#374856"/>
</g>
<defs>
<clipPath id="clip0_333_15048">
<rect width="18" height="18" fill="white" transform="translate(0.232422)"/>
</clipPath>
</defs>
</svg>
