<svg width="19" height="18" viewBox="0 0 19 18" fill="none" xmlns="http://www.w3.org/2000/svg">
<g clipPath="url(#clip0_333_15054)">
<path d="M9.23242 0C4.26967 0 0.232422 4.03725 0.232422 9C0.232422 13.9628 4.26967 18 9.23242 18C14.1952 18 18.2324 13.9628 18.2324 9C18.2324 4.03725 14.1952 0 9.23242 0ZM6.23242 15.873V15.75C6.23242 14.0955 7.57792 12.75 9.23242 12.75C10.8869 12.75 12.2324 14.0955 12.2324 15.75V15.873C11.3129 16.2757 10.2989 16.5 9.23242 16.5C8.16592 16.5 7.15192 16.2757 6.23242 15.873ZM13.6762 15.0382C13.3342 12.894 11.4719 11.25 9.23242 11.25C6.99292 11.25 5.13142 12.894 4.78867 15.0382C2.93617 13.671 1.73242 11.4735 1.73242 9C1.73242 4.8645 5.09692 1.5 9.23242 1.5C13.3679 1.5 16.7324 4.8645 16.7324 9C16.7324 11.4735 15.5287 13.671 13.6762 15.0382ZM9.23242 3.75C7.57792 3.75 6.23242 5.0955 6.23242 6.75C6.23242 8.4045 7.57792 9.75 9.23242 9.75C10.8869 9.75 12.2324 8.4045 12.2324 6.75C12.2324 5.0955 10.8869 3.75 9.23242 3.75ZM9.23242 8.25C8.40517 8.25 7.73242 7.57725 7.73242 6.75C7.73242 5.92275 8.40517 5.25 9.23242 5.25C10.0597 5.25 10.7324 5.92275 10.7324 6.75C10.7324 7.57725 10.0597 8.25 9.23242 8.25Z" fill="#374856"/>
</g>
<defs>
<clipPath id="clip0_333_15054">
<rect width="18" height="18" fill="white" transform="translate(0.232422)"/>
</clipPath>
</defs>
</svg>
