<svg width="19" height="18" viewBox="0 0 19 18" fill="none" xmlns="http://www.w3.org/2000/svg">
<g clipPath="url(#clip0_333_15022)">
<path d="M5.49609 0H3.24609C2.45044 0 1.68738 0.316071 1.12477 0.87868C0.562164 1.44129 0.246094 2.20435 0.246094 3L0.246094 5.25C0.246094 6.04565 0.562164 6.80871 1.12477 7.37132C1.68738 7.93393 2.45044 8.25 3.24609 8.25H5.49609C6.29174 8.25 7.05481 7.93393 7.61741 7.37132C8.18002 6.80871 8.49609 6.04565 8.49609 5.25V3C8.49609 2.20435 8.18002 1.44129 7.61741 0.87868C7.05481 0.316071 6.29174 0 5.49609 0ZM6.99609 5.25C6.99609 5.64783 6.83806 6.02936 6.55675 6.31066C6.27545 6.59197 5.89392 6.75 5.49609 6.75H3.24609C2.84827 6.75 2.46674 6.59197 2.18543 6.31066C1.90413 6.02936 1.74609 5.64783 1.74609 5.25V3C1.74609 2.60218 1.90413 2.22064 2.18543 1.93934C2.46674 1.65804 2.84827 1.5 3.24609 1.5H5.49609C5.89392 1.5 6.27545 1.65804 6.55675 1.93934C6.83806 2.22064 6.99609 2.60218 6.99609 3V5.25Z" fill="white"/>
<path d="M15.2461 0H12.9961C12.2004 0 11.4374 0.316071 10.8748 0.87868C10.3122 1.44129 9.99609 2.20435 9.99609 3V5.25C9.99609 6.04565 10.3122 6.80871 10.8748 7.37132C11.4374 7.93393 12.2004 8.25 12.9961 8.25H15.2461C16.0417 8.25 16.8048 7.93393 17.3674 7.37132C17.93 6.80871 18.2461 6.04565 18.2461 5.25V3C18.2461 2.20435 17.93 1.44129 17.3674 0.87868C16.8048 0.316071 16.0417 0 15.2461 0ZM16.7461 5.25C16.7461 5.64783 16.5881 6.02936 16.3068 6.31066C16.0254 6.59197 15.6439 6.75 15.2461 6.75H12.9961C12.5983 6.75 12.2167 6.59197 11.9354 6.31066C11.6541 6.02936 11.4961 5.64783 11.4961 5.25V3C11.4961 2.60218 11.6541 2.22064 11.9354 1.93934C12.2167 1.65804 12.5983 1.5 12.9961 1.5H15.2461C15.6439 1.5 16.0254 1.65804 16.3068 1.93934C16.5881 2.22064 16.7461 2.60218 16.7461 3V5.25Z" fill="white"/>
<path d="M5.49609 9.75H3.24609C2.45044 9.75 1.68738 10.0661 1.12477 10.6287C0.562164 11.1913 0.246094 11.9544 0.246094 12.75L0.246094 15C0.246094 15.7957 0.562164 16.5587 1.12477 17.1213C1.68738 17.6839 2.45044 18 3.24609 18H5.49609C6.29174 18 7.05481 17.6839 7.61741 17.1213C8.18002 16.5587 8.49609 15.7957 8.49609 15V12.75C8.49609 11.9544 8.18002 11.1913 7.61741 10.6287C7.05481 10.0661 6.29174 9.75 5.49609 9.75ZM6.99609 15C6.99609 15.3978 6.83806 15.7794 6.55675 16.0607C6.27545 16.342 5.89392 16.5 5.49609 16.5H3.24609C2.84827 16.5 2.46674 16.342 2.18543 16.0607C1.90413 15.7794 1.74609 15.3978 1.74609 15V12.75C1.74609 12.3522 1.90413 11.9706 2.18543 11.6893C2.46674 11.408 2.84827 11.25 3.24609 11.25H5.49609C5.89392 11.25 6.27545 11.408 6.55675 11.6893C6.83806 11.9706 6.99609 12.3522 6.99609 12.75V15Z" fill="white"/>
<path d="M15.2461 9.75H12.9961C12.2004 9.75 11.4374 10.0661 10.8748 10.6287C10.3122 11.1913 9.99609 11.9544 9.99609 12.75V15C9.99609 15.7957 10.3122 16.5587 10.8748 17.1213C11.4374 17.6839 12.2004 18 12.9961 18H15.2461C16.0417 18 16.8048 17.6839 17.3674 17.1213C17.93 16.5587 18.2461 15.7957 18.2461 15V12.75C18.2461 11.9544 17.93 11.1913 17.3674 10.6287C16.8048 10.0661 16.0417 9.75 15.2461 9.75ZM16.7461 15C16.7461 15.3978 16.5881 15.7794 16.3068 16.0607C16.0254 16.342 15.6439 16.5 15.2461 16.5H12.9961C12.5983 16.5 12.2167 16.342 11.9354 16.0607C11.6541 15.7794 11.4961 15.3978 11.4961 15V12.75C11.4961 12.3522 11.6541 11.9706 11.9354 11.6893C12.2167 11.408 12.5983 11.25 12.9961 11.25H15.2461C15.6439 11.25 16.0254 11.408 16.3068 11.6893C16.5881 11.9706 16.7461 12.3522 16.7461 12.75V15Z" fill="white"/>
</g>
<defs>
<clipPath id="clip0_333_15022">
<rect width="18" height="18" fill="white" transform="translate(0.246094)"/>
</clipPath>
</defs>
</svg>
