<svg width="25" height="24" viewBox="0 0 25 24" fill="none" xmlns="http://www.w3.org/2000/svg">
<g clipPath="url(#clip0_333_15037)">
<path d="M7.65597 9.196C7.54897 8.732 7.25297 8.31 6.81397 8.126C6.60797 8.04 6.40097 8 6.20097 8C5.51197 8 4.91397 8.475 4.75797 9.147L3.28297 15.399C3.21097 15.706 3.44297 16 3.75897 16C3.98497 16 4.18097 15.845 4.23397 15.625L4.62297 14H7.73797L8.11197 15.621C8.16297 15.843 8.36097 16 8.58797 16H8.59997C8.91397 16 9.14597 15.708 9.07597 15.402L7.65397 9.196H7.65597ZM4.86297 13L5.73197 9.373C5.78297 9.154 5.97597 9 6.20097 9C6.27397 9 6.34997 9.016 6.42697 9.049C6.53797 9.095 6.63997 9.246 6.67997 9.42L7.50697 13H4.86297ZM19.668 4H4.66797C2.18597 4 0.167969 6.019 0.167969 8.5V15.5C0.167969 17.981 2.18697 20 4.66797 20H19.668C22.149 20 24.168 17.981 24.168 15.5V8.5C24.168 6.019 22.149 4 19.668 4ZM1.16797 15.5V8.5C1.16797 6.57 2.73797 5 4.66797 5H11.668V19H4.66797C2.73797 19 1.16797 17.43 1.16797 15.5ZM23.168 15.5C23.168 17.43 21.598 19 19.668 19H12.668V5H19.668C21.598 5 23.168 6.57 23.168 8.5V15.5ZM22.168 9.491V9.509C22.168 9.78 21.948 10 21.677 10H21.131C21.024 10.917 20.614 12.904 19.046 14.341C19.747 14.695 20.62 14.936 21.704 14.989C21.964 15.002 22.168 15.218 22.168 15.479V15.497C22.168 15.778 21.933 16.002 21.652 15.988C20.183 15.917 19.047 15.54 18.168 15.002C17.289 15.54 16.153 15.917 14.684 15.988C14.404 16.002 14.168 15.778 14.168 15.497V15.479C14.168 15.219 14.372 15.002 14.632 14.989C15.717 14.935 16.589 14.694 17.291 14.341C16.751 13.846 16.348 13.286 16.048 12.727C15.872 12.398 16.107 12 16.48 12C16.661 12 16.825 12.1 16.912 12.259C17.203 12.793 17.607 13.325 18.169 13.778C19.643 12.593 20.031 10.853 20.133 10.001H14.66C14.389 10.001 14.169 9.781 14.169 9.51V9.492C14.169 9.221 14.389 9.001 14.66 9.001H17.669V8.492C17.669 8.221 17.889 8.001 18.16 8.001H18.178C18.449 8.001 18.669 8.221 18.669 8.492V9.001H21.678C21.949 9.001 22.169 9.221 22.169 9.492L22.168 9.491Z" fill="#374856"/>
</g>
<defs>
<clipPath id="clip0_333_15037">
<rect width="24" height="24" fill="white" transform="translate(0.148438)"/>
</clipPath>
</defs>
</svg>
