<svg width="49" height="49" viewBox="0 0 66 66" fill="none" xmlns="http://www.w3.org/2000/svg">
<g clipPath="url(#clip0_333_15597)">
<path d="M29.8629 35.495H8.22396C3.74201 35.495 0.109375 39.1276 0.109375 43.6096V57.1339C0.109375 61.6159 3.74201 65.2485 8.22396 65.2485H29.8629V35.495ZM9.57639 46.3145C9.57639 44.8214 10.7882 43.6096 12.2813 43.6096H17.691C19.1841 43.6096 20.3958 44.8214 20.3958 46.3145C20.3958 47.8075 19.1841 49.0193 17.691 49.0193H12.2813C10.7882 49.0193 9.57639 47.8075 9.57639 46.3145ZM56.9115 35.495H35.2726V65.2485H56.9115C61.3934 65.2485 65.0261 61.6159 65.0261 57.1339V43.6096C65.0261 39.1276 61.3934 35.495 56.9115 35.495ZM52.8542 49.0193H47.4445C45.9514 49.0193 44.7396 47.8075 44.7396 46.3145C44.7396 44.8214 45.9514 43.6096 47.4445 43.6096H52.8542C54.3473 43.6096 55.5591 44.8214 55.5591 46.3145C55.5591 47.8075 54.3473 49.0193 52.8542 49.0193ZM40.6823 0.331787H24.4531C19.9712 0.331787 16.3386 3.96442 16.3386 8.44637V30.0853H48.7969V8.44637C48.7969 3.96442 45.1643 0.331787 40.6823 0.331787ZM35.2726 13.8561H29.8629C28.3698 13.8561 27.158 12.6443 27.158 11.1512C27.158 9.65815 28.3698 8.44637 29.8629 8.44637H35.2726C36.7657 8.44637 37.9775 9.65815 37.9775 11.1512C37.9775 12.6443 36.7657 13.8561 35.2726 13.8561Z" fill="white"/>
</g>
<defs>
<clipPath id="clip0_333_15597">
<rect width="64.9167" height="64.9167" fill="white" transform="translate(0.107422 0.331787)"/>
</clipPath>
</defs>
</svg>
