<svg width="11" height="10" viewBox="0 0 11 10" fill="none" xmlns="http://www.w3.org/2000/svg">
<path d="M0.945312 3.93131C1.26442 3.51312 1.74682 3.52194 2.19431 3.4451C2.78017 3.34559 3.48944 3.42369 3.91948 3.10879C4.34828 2.79263 4.49911 2.08725 4.7696 1.55066C4.86059 1.37179 4.91046 1.15388 5.04258 1.01911C5.21585 0.84528 5.45393 0.628629 5.66335 0.629888C5.87276 0.629888 6.16195 0.827646 6.27538 1.02288C6.61817 1.61364 6.87495 2.25604 7.20652 2.85435C7.30001 3.02313 7.52064 3.1831 7.70887 3.22215C8.35705 3.35441 9.02518 3.39724 9.66838 3.54713C9.92017 3.60633 10.2368 3.81794 10.3191 4.03837C10.3901 4.22857 10.233 4.5863 10.0698 4.77146C9.62849 5.27027 9.11368 5.70105 8.66369 6.19356C8.53281 6.33589 8.44929 6.60041 8.47173 6.79313C8.54403 7.42419 8.71106 8.04643 8.7684 8.67875C8.79333 8.96216 8.72477 9.33123 8.554 9.53654C8.30594 9.83633 7.94944 9.66376 7.64529 9.50001C7.0906 9.20023 6.54089 8.88659 5.96874 8.62459C5.79423 8.54523 5.52374 8.54775 5.34923 8.62963C4.74841 8.91052 4.18499 9.27203 3.57918 9.54032C3.35357 9.63983 2.9846 9.67006 2.80884 9.54536C2.63433 9.42192 2.53212 9.05663 2.55455 8.81227C2.61314 8.14594 2.73031 7.48213 2.87366 6.8284C2.94347 6.51349 2.84499 6.33589 2.63558 6.13309C2.05969 5.57887 1.50624 5.00323 0.945312 4.43515C0.945312 4.26762 0.945312 4.09884 0.945312 3.93131Z" fill="#FFB800"/>
</svg>
