<svg width="38" height="39" viewBox="0 0 38 39" fill="none" xmlns="http://www.w3.org/2000/svg">
<g clipPath="url(#clip0_333_16230)">
<path d="M8.60858 0.871527C9.15635 0.989544 9.71981 1.06146 10.251 1.23388C12.8829 2.09042 14.5843 3.88003 15.3793 6.51604C15.8072 7.93593 15.7564 9.37703 15.3571 10.7988C15.2677 11.1187 15.3378 11.304 15.5637 11.529C19.4645 15.4189 23.3599 19.3153 27.2441 23.2219C27.4931 23.4726 27.708 23.5335 28.0418 23.4524C29.4933 23.102 30.9614 23.0006 32.4019 23.456C35.3022 24.3734 37.0746 26.3558 37.7524 29.3117C38.0115 30.4439 37.9359 31.578 37.6657 32.701C37.4361 33.6562 36.4475 33.9494 35.7393 33.2579C34.7821 32.3239 33.8516 31.3622 32.8971 30.4264C31.8679 29.4177 30.3556 29.4989 29.5071 30.5905C28.9105 31.3586 28.8838 32.5129 29.533 33.2459C30.2311 34.0342 31.0002 34.7608 31.7407 35.5122C32.033 35.81 32.3373 36.0958 32.6232 36.3992C33.2872 37.1054 33.0041 38.0698 32.0699 38.3077C27.7919 39.3948 23.5176 36.7182 22.6442 32.3912C22.3953 31.1576 22.4976 29.9239 22.7992 28.7096C22.8849 28.3648 22.8231 28.1408 22.5612 27.8798C18.6733 24.0111 14.7964 20.1313 10.9288 16.2423C10.6641 15.9758 10.4336 15.903 10.0712 15.9896C8.48039 16.3714 6.87487 16.4442 5.3256 15.8495C2.61253 14.8076 0.949826 12.8401 0.366082 9.98186C0.298763 9.6481 0.264642 9.30695 0.214844 8.9695C0.214844 8.74822 0.214844 8.52786 0.214844 8.30658C0.30614 7.77827 0.372537 7.24351 0.493344 6.72165C0.711902 5.77844 1.6802 5.49723 2.38936 6.15923C2.68446 6.43491 2.96203 6.73087 3.24976 7.01485C4.00964 7.7626 4.7437 8.53892 5.54047 9.24518C6.26715 9.88966 7.43371 9.86753 8.19913 9.28206C9.30206 8.43935 9.39059 6.93832 8.3808 5.90568C7.47245 4.97629 6.54841 4.06351 5.62623 3.14704C5.27488 2.7976 5.04894 2.41312 5.2094 1.89864C5.36802 1.39154 5.75165 1.1721 6.24594 1.08912C6.64156 1.02274 7.03533 0.943444 7.43095 0.870605C7.8238 0.870605 8.21665 0.870605 8.6095 0.870605L8.60858 0.871527Z" fill="white"/>
<path d="M0.214844 33.6309C0.381759 32.8739 0.596629 32.1363 1.09276 31.5167C1.24585 31.3259 1.40262 31.135 1.57507 30.9626C5.00744 27.5272 8.44166 24.0937 11.8759 20.661C11.9192 20.6177 11.9644 20.5781 11.9746 20.5688C14.0495 22.6434 16.1179 24.7105 18.2067 26.7998C18.1975 26.8108 18.1403 26.8846 18.0748 26.95C14.6673 30.3578 11.2626 33.7692 7.84962 37.1714C6.18231 38.8338 3.7837 39.032 1.967 37.6619C1.05772 36.9769 0.507177 36.0595 0.288619 34.9429C0.270175 34.8479 0.239743 34.7557 0.215766 34.6617C0.215766 34.3178 0.215766 33.9748 0.215766 33.6309H0.214844ZM6.0864 34.1601C6.34 34.1684 6.61297 33.9518 6.87118 33.6936C9.00327 31.5601 11.1372 29.4275 13.2693 27.294C13.3643 27.199 13.4593 27.1003 13.5358 26.9906C13.9803 26.3507 13.652 25.4896 12.8977 25.2987C12.4089 25.1752 12.0465 25.3872 11.7163 25.7182C9.57687 27.8619 7.43464 30.0028 5.29424 32.1455C5.20756 32.2322 5.12087 32.3207 5.05079 32.4203C4.79626 32.7836 4.76399 33.1745 4.96594 33.5654C5.1679 33.9573 5.5045 34.1546 6.08732 34.1592L6.0864 34.1601Z" fill="white"/>
<path d="M35.1161 0.871582C35.4011 1.07442 35.7118 1.2496 35.9664 1.48564C36.4791 1.96047 36.9633 2.46665 37.4548 2.96361C37.9915 3.50667 38.0487 3.95385 37.654 4.61308C36.5473 6.46447 35.438 8.31493 34.324 10.1617C33.8361 10.9712 33.0707 11.0653 32.4021 10.4024C32.2288 10.2309 32.0803 10.0345 31.8746 9.79659C29.3718 12.3293 26.9271 14.8031 24.5073 17.2519C23.4246 16.1723 22.4029 15.1525 21.418 14.1697C23.8304 11.73 26.2751 9.25722 28.741 6.7632C28.5548 6.56681 28.3888 6.40915 28.2412 6.23581C27.7783 5.6909 27.8447 4.94685 28.4524 4.57343C30.4056 3.3739 32.3781 2.20665 34.3442 1.02832C34.4475 0.966549 34.5637 0.923214 34.6735 0.871582C34.821 0.871582 34.9676 0.871582 35.1152 0.871582L35.1161 0.871582Z" fill="white"/>
</g>
<defs>
<clipPath id="clip0_333_16230">
<rect width="37.6971" height="37.6971" fill="white" transform="translate(0.214844 0.871582)"/>
</clipPath>
</defs>
</svg>
