<svg width="46" height="46" viewBox="0 0 46 46" fill="none" xmlns="http://www.w3.org/2000/svg">
<g clipPath="url(#clip0_333_15646)">
<path d="M14.1723 7.7424C15.5415 7.16882 16.8931 6.54956 18.2851 6.03643C19.4728 5.59717 19.4863 5.64956 19.5803 4.38284C19.6596 3.29747 19.7456 2.21075 19.8491 1.12672C19.9162 0.424181 20.3395 0.0440316 21.0489 0.0386584C22.6075 0.0292554 24.1674 0.0252256 25.726 0.0386584C26.7404 0.0480614 27.1959 0.895675 26.6974 1.76747C24.6444 5.35673 24.4482 9.05613 26.0565 12.8576C26.1116 12.9879 26.1613 13.1209 26.2406 13.3238C23.5158 12.5755 20.9656 12.8254 18.5632 14.2036C16.6835 15.2823 15.3198 16.8351 14.4787 18.8285C12.7897 22.8288 14.0017 27.443 17.4118 30.1444C20.7426 32.7826 25.859 33.1238 29.7823 29.8072C29.7985 29.9603 29.824 30.0812 29.824 30.2021C29.8267 32.8672 29.8173 35.5323 29.8361 38.196C29.8388 38.548 29.7246 38.7011 29.4021 38.7924C28.823 38.9563 28.2614 39.1847 27.6769 39.3257C27.3679 39.401 27.2738 39.5433 27.2523 39.8321C27.1542 41.2023 27.0521 42.5725 26.9299 43.9413C26.8613 44.711 26.4462 45.083 25.679 45.0871C24.1526 45.0938 22.6276 45.0938 21.1013 45.0871C20.3247 45.0844 19.9095 44.719 19.8423 43.952C19.7241 42.6168 19.6233 41.2802 19.5347 39.9436C19.5105 39.5796 19.3989 39.3983 19.008 39.3029C17.3204 38.8918 15.7484 38.1907 14.222 37.249C13.6859 37.7057 13.1404 38.1678 12.5963 38.6326C11.997 39.1444 11.4058 39.6656 10.7999 40.168C10.1805 40.6824 9.63228 40.6596 9.06527 40.0981C8.00517 39.0477 6.95178 37.9918 5.8984 36.9347C5.26421 36.2993 5.23734 35.7674 5.81106 35.0903C6.67903 34.0681 7.547 33.0472 8.43244 32.0397C8.6286 31.8168 8.66219 31.6583 8.50096 31.395C7.63836 29.9859 7.01224 28.4733 6.61319 26.8721C6.53123 26.5444 6.38344 26.4423 6.07575 26.4208C4.7214 26.3241 3.36839 26.2247 2.01537 26.1051C1.21055 26.0339 0.850468 25.6269 0.847781 24.825C0.842406 23.3165 0.842406 21.8079 0.847781 20.2994C0.850468 19.4935 1.20787 19.0864 2.01 19.0153C3.34554 18.897 4.68243 18.7976 6.02066 18.705C6.3606 18.6808 6.53526 18.5814 6.62663 18.2052C7.01493 16.6188 7.64374 15.1238 8.49693 13.7294C8.65413 13.4729 8.63935 13.313 8.43781 13.0833C7.56178 12.0906 6.70725 11.0791 5.84734 10.0717C5.22928 9.34628 5.25078 8.83315 5.9293 8.1521C6.9585 7.11912 7.98905 6.08747 9.02362 5.05986C9.63496 4.45269 10.1751 4.42583 10.8335 4.98061C11.9487 5.91956 13.0531 6.87061 14.1629 7.81628C14.175 7.82568 14.1925 7.82837 14.2086 7.83374L14.1683 7.73703L14.1723 7.7424Z" fill="white"/>
<path d="M33.0446 28.7128C33.0446 24.5741 33.0392 20.4354 33.054 16.2968C33.054 15.9341 32.9586 15.7326 32.6388 15.5486C26.8774 12.2495 26.7323 3.93183 32.3714 0.429888C32.5407 0.325112 32.7557 0.29153 32.9505 0.224365C32.9828 0.415112 33.0405 0.605858 33.0419 0.795262C33.0472 3.61079 33.0526 6.42497 33.0378 9.2405C33.0365 9.57901 33.1305 9.74154 33.4503 9.86378C34.5615 10.2842 35.6552 10.7477 36.7663 11.1708C36.9464 11.2393 37.1963 11.2393 37.3763 11.1708C38.4862 10.749 39.5812 10.2856 40.6924 9.86378C41.0135 9.74289 41.1062 9.57766 41.1049 9.2405C41.0901 6.40885 41.0941 3.57721 41.1008 0.74556C41.1008 0.572276 41.1599 0.398992 41.1922 0.224365C41.3722 0.28347 41.5711 0.308992 41.7283 0.404365C47.3661 3.84183 47.2935 12.1339 41.5859 15.4975C41.1895 15.7313 41.0874 15.973 41.0887 16.3989C41.0995 24.5754 41.0995 32.7534 41.0954 40.9299C41.0954 42.9785 39.7908 44.6199 37.8936 44.9988C35.373 45.5011 33.0674 43.6528 33.0553 41.0777C33.0352 36.9552 33.0499 32.834 33.0499 28.7114L33.0446 28.7128Z" fill="white"/>
</g>
<defs>
<clipPath id="clip0_333_15646">
<rect width="45.0619" height="45.0619" fill="white" transform="translate(0.847656 0.0319824)"/>
</clipPath>
</defs>
</svg>
