<svg width="51" height="41" viewBox="0 0 51 41" fill="none" xmlns="http://www.w3.org/2000/svg">
<g clipPath="url(#clip0_333_16211)">
<path d="M16.3221 27.4809C15.3969 24.0017 14.4829 20.5619 13.5605 17.0898C19.5881 14.9282 24.8674 11.7581 28.6266 6.27881C30.6664 13.9506 32.6867 21.5536 34.7307 29.245C28.7742 26.3881 22.6227 26.3109 16.3207 27.4795L16.3221 27.4809Z" fill="white"/>
<path d="M12.5717 17.4438C13.4816 20.8654 14.3831 24.2588 15.2943 27.686C14.0668 28.0189 12.8657 28.3377 11.6689 28.6706C10.1641 29.0892 8.66486 29.5316 7.15729 29.9432C4.57267 30.6511 2.05633 29.4754 0.961176 27.0638C-0.15627 24.6044 0.557111 21.7699 2.69586 20.3443C3.17935 20.0212 3.73946 19.7712 4.29958 19.6167C6.97615 18.8751 9.66527 18.177 12.3502 17.4649C12.4004 17.4523 12.4533 17.4551 12.5731 17.4438H12.5717Z" fill="white"/>
<path d="M38.3512 33.0222C37.3759 32.9519 36.643 32.369 36.3755 31.3732C35.8307 29.3464 35.2985 27.3168 34.7592 25.2886C32.8462 18.0887 30.9318 10.8889 29.0188 3.689C28.7471 2.66506 29.0424 1.79282 29.8199 1.28718C30.5486 0.813834 31.5114 0.822261 32.1384 1.43466C32.4798 1.76895 32.7598 2.24791 32.8852 2.71282C34.1727 7.45467 35.4211 12.2077 36.6834 16.9566C37.851 21.3515 39.0214 25.745 40.189 30.1386C40.4886 31.2664 40.2071 32.1822 39.3642 32.6626C39.0577 32.8382 38.6898 32.9042 38.3498 33.0207L38.3512 33.0222Z" fill="white"/>
<path d="M8.50391 30.6533C9.89305 30.2601 11.2418 29.8682 12.6003 29.5086C12.7354 29.4735 13.0016 29.5943 13.0754 29.7207C14.4952 32.1675 15.908 34.6185 17.293 37.0863C17.9172 38.1987 17.5508 39.5274 16.5044 40.1553C15.4468 40.7902 14.087 40.4938 13.4516 39.4038C11.7963 36.5694 10.1801 33.7111 8.54989 30.8598C8.5262 30.8191 8.52759 30.7629 8.50391 30.6519V30.6533Z" fill="white"/>
<path d="M36.7266 13.0394C37.681 13.0394 38.5602 13.0141 39.438 13.0619C39.6038 13.0703 39.8434 13.34 39.8992 13.5324C40.2642 14.7881 40.6 16.0536 40.9107 17.3248C40.9553 17.5045 40.8759 17.8318 40.7421 17.9203C39.9967 18.4189 39.2164 18.8656 38.4013 19.3572C37.8343 17.2166 37.2867 15.1505 36.7266 13.0408V13.0394Z" fill="white"/>
<path d="M49.5781 23.6237C49.5545 24.1687 49.1448 24.3639 48.7171 24.1266C47.9577 23.7038 47.2123 23.2571 46.4613 22.8189C45.695 22.3723 44.9328 21.92 44.1637 21.4803C43.8321 21.2907 43.6328 21.0449 43.8516 20.6755C44.055 20.3328 44.3546 20.3806 44.6653 20.5618C46.1659 21.4396 47.6735 22.3048 49.1671 23.1925C49.3552 23.3049 49.4834 23.5198 49.5795 23.6223L49.5781 23.6237Z" fill="white"/>
<path d="M40.4531 8.66954C40.5423 8.4715 40.5841 8.35632 40.644 8.25238C41.5093 6.73685 42.3648 5.2171 43.2593 3.71841C43.3721 3.5302 43.7024 3.34058 43.9044 3.36727C44.275 3.41783 44.4032 3.74931 44.2109 4.08922C43.3039 5.70027 42.3898 7.30851 41.4452 8.89849C41.356 9.04878 41.0216 9.1471 40.8321 9.11058C40.6775 9.08108 40.5674 8.8114 40.4545 8.67095L40.4531 8.66954Z" fill="white"/>
<path d="M45.1322 14.7163C44.9747 14.5436 44.7365 14.3961 44.6794 14.1952C44.5818 13.8469 44.8354 13.6615 45.1573 13.5758C46.3472 13.2584 47.5357 12.9367 48.7256 12.6165C49.262 12.4732 49.7956 12.3215 50.3349 12.1909C50.6414 12.1165 50.9005 12.2064 50.9841 12.5435C51.065 12.8665 50.9201 13.0969 50.6024 13.1839C48.8454 13.6657 47.087 14.1391 45.33 14.6152C45.2966 14.6236 45.2618 14.6236 45.2269 14.6278C45.1949 14.6573 45.1628 14.6868 45.1308 14.7163H45.1322Z" fill="white"/>
</g>
<defs>
<clipPath id="clip0_333_16211">
<rect width="50.5693" height="39.536" fill="white" transform="translate(0.4375 0.95166)"/>
</clipPath>
</defs>
</svg>
