<svg width="19" height="18" viewBox="0 0 19 18" fill="none" xmlns="http://www.w3.org/2000/svg">
<g clipPath="url(#clip0_333_15043)">
<path d="M13.3571 1.43799C12.5126 1.45112 11.6865 1.68688 10.9622 2.12144C10.2379 2.55601 9.64117 3.17399 9.23215 3.91299C8.82313 3.17399 8.22635 2.55601 7.50207 2.12144C6.7778 1.68688 5.95168 1.45112 5.10715 1.43799C3.76085 1.49648 2.49243 2.08543 1.57898 3.07616C0.665541 4.0669 0.181334 5.37888 0.232146 6.72549C0.232146 10.1357 3.82165 13.8602 6.83215 16.3855C7.50431 16.9503 8.35416 17.26 9.23215 17.26C10.1101 17.26 10.96 16.9503 11.6321 16.3855C14.6426 13.8602 18.2321 10.1357 18.2321 6.72549C18.283 5.37888 17.7987 4.0669 16.8853 3.07616C15.9719 2.08543 14.7034 1.49648 13.3571 1.43799ZM10.6684 15.238C10.2664 15.5765 9.75771 15.7622 9.23215 15.7622C8.70658 15.7622 8.19791 15.5765 7.7959 15.238C3.9424 12.0047 1.73215 8.90274 1.73215 6.72549C1.68088 5.77653 2.00692 4.84579 2.63917 4.13626C3.27142 3.42674 4.15857 2.996 5.10715 2.93799C6.05572 2.996 6.94288 3.42674 7.57512 4.13626C8.20737 4.84579 8.53341 5.77653 8.48215 6.72549C8.48215 6.9244 8.56116 7.11517 8.70182 7.25582C8.84247 7.39647 9.03323 7.47549 9.23215 7.47549C9.43106 7.47549 9.62182 7.39647 9.76248 7.25582C9.90313 7.11517 9.98215 6.9244 9.98215 6.72549C9.93088 5.77653 10.2569 4.84579 10.8892 4.13626C11.5214 3.42674 12.4086 2.996 13.3571 2.93799C14.3057 2.996 15.1929 3.42674 15.8251 4.13626C16.4574 4.84579 16.7834 5.77653 16.7321 6.72549C16.7321 8.90274 14.5219 12.0047 10.6684 15.235V15.238Z" fill="#374856"/>
</g>
<defs>
<clipPath id="clip0_333_15043">
<rect width="18" height="18" fill="white" transform="translate(0.232422)"/>
</clipPath>
</defs>
</svg>
