<svg width="10" height="18" viewBox="0 0 10 18" fill="none" xmlns="http://www.w3.org/2000/svg">
	<path d="M0.616069 1.04372C0.38173 1.27813 0.250086 1.59601 0.250086 1.92747C0.250086 2.25892 0.38173 2.57681 0.616069 2.81122L6.80357 8.99872L0.616068 15.1862C0.388371 15.422 0.262378 15.7377 0.265226 16.0655C0.268073 16.3932 0.399534 16.7067 0.631294 16.9385C0.863055 17.1702 1.17657 17.3017 1.50432 17.3046C1.83206 17.3074 2.14781 17.1814 2.38357 16.9537L9.45482 9.88247C9.68916 9.64806 9.8208 9.33017 9.8208 8.99872C9.8208 8.66726 9.68916 8.34938 9.45482 8.11497L2.38357 1.04372C2.14916 0.809378 1.83127 0.677734 1.49982 0.677734C1.16836 0.677734 0.850478 0.809378 0.616069 1.04372Z" fill="#898989" />
</svg>
