
<svg width="18" height="10" viewBox="0 0 18 10" fill="none" xmlns="http://www.w3.org/2000/svg">
<path d="M1.04323 9.38442C1.27764 9.61876 1.59552 9.7504 1.92698 9.7504C2.25843 9.7504 2.57632 9.61876 2.81073 9.38442L8.99823 3.19692L15.1857 9.38442C15.4215 9.61212 15.7372 9.73811 16.065 9.73526C16.3927 9.73241 16.7062 9.60095 16.938 9.36919C17.1698 9.13743 17.3012 8.82392 17.3041 8.49617C17.3069 8.16843 17.1809 7.85267 16.9532 7.61692L9.88198 0.54567C9.64757 0.311332 9.32968 0.179687 8.99823 0.179687C8.66677 0.179687 8.34889 0.311332 8.11448 0.54567L1.04323 7.61692C0.80889 7.85133 0.677246 8.16921 0.677246 8.50067C0.677246 8.83212 0.80889 9.15001 1.04323 9.38442Z" fill="#34A853"/>
</svg>
